<svg width="42" height="42" viewBox="0 0 42 42" fill="none" xmlns="http://www.w3.org/2000/svg">
<path d="M30.0079 14.2048H29.0435H27.5423C28.4209 13.6028 28.9978 12.6131 28.9978 11.494C28.9978 9.66266 27.4585 8.17293 25.5669 8.17293C23.9617 8.17293 22.0609 11.1738 21 13.1134C19.9391 11.1742 18.0377 8.17293 16.4328 8.17293C14.5412 8.17293 13.0019 9.66299 13.0019 11.494C13.0019 12.6131 13.5785 13.6028 14.4574 14.2048H13.1039H11.9924C10.894 14.2048 10 15.1797 10 16.3777V19.8228C10 20.6762 10.4544 21.4138 11.1121 21.7689V29.6532C11.1121 30.8518 12.0057 31.8267 13.1039 31.8267H29.0432C30.1419 31.8267 31.0356 30.8518 31.0356 29.6532V21.6815C31.6125 21.3006 32 20.6115 32 19.8234V16.378C32.0003 15.18 31.1067 14.2048 30.0079 14.2048ZM11.9924 20.0158C11.8947 20.0158 11.8151 19.9294 11.8151 19.8231V16.3777C11.8151 16.2714 11.8947 16.1849 11.9924 16.1849H20.0921V20.0155L11.9924 20.0158ZM21.9076 16.1849H30.0079C30.1056 16.1849 30.1852 16.2714 30.1852 16.3777V19.8228C30.1852 19.929 30.1056 20.0155 30.0079 20.0155H21.9076V16.1849ZM25.5666 10.1531C26.4424 10.1531 27.1823 10.7672 27.1823 11.494C27.1823 12.2207 26.4424 12.8348 25.5666 12.8348H23.3249C24.243 11.3884 25.1863 10.2389 25.5666 10.1531ZM16.4077 10.1514C16.807 10.2385 17.7551 11.3887 18.6745 12.8355H16.4328C15.557 12.8355 14.8171 12.2213 14.8171 11.4946C14.8171 10.7679 15.557 10.1531 16.4077 10.1514ZM12.9272 29.6539V21.996H20.0924V29.8469H13.1039C13.0065 29.8472 12.9272 29.7604 12.9272 29.6539ZM29.0435 29.8472H21.9076V21.996H29.2207V29.6535C29.2207 29.7604 29.1412 29.8472 29.0435 29.8472Z" fill="white"/>
</svg>
