<svg width="20" height="20" viewBox="0 0 20 20" fill="none" xmlns="http://www.w3.org/2000/svg">
<path fill-rule="evenodd" clip-rule="evenodd" d="M18.5001 18.5C18.1586 18.8414 17.3415 19.3414 17.0001 19L1.00005 2.99997C0.658577 2.6585 1.15853 1.84171 1.5 1.50024C1.84147 1.15877 2.65858 0.65859 3.00005 1.00006L19.0001 17C19.3415 17.3414 18.8415 18.1585 18.5001 18.5Z" fill="#8E8E8E"/>
<path fill-rule="evenodd" clip-rule="evenodd" d="M1.50005 18.5C1.15858 18.1585 0.658577 17.3416 1.00005 17.0002L17.0001 1.00006C17.3415 0.65859 18.1586 1.1585 18.5001 1.49997C18.8415 1.84144 19.3415 2.6585 19.0001 2.99997L3.00005 19.0002C2.65858 19.3416 1.84152 18.8414 1.50005 18.5Z" fill="#8E8E8E"/>
</svg>
