<svg width="21" height="21" viewBox="0 0 21 21" fill="none" xmlns="http://www.w3.org/2000/svg">
<path d="M19.95 18.9H2.1V1.05C2.1 0.4725 1.6275 0 1.05 0C0.472499 0 0 0.4725 0 1.05V19.95C0 20.5275 0.472499 21 1.05 21H19.95C20.5275 21 21 20.5275 21 19.95C21 19.3725 20.5275 18.9 19.95 18.9Z" fill="#8E8E8E"/>
<path d="M5.25 16.8C5.8275 16.8 6.3 16.3275 6.3 15.75V9.45C6.3 8.8725 5.8275 8.4 5.25 8.4C4.6725 8.4 4.2 8.8725 4.2 9.45V15.75C4.2 16.3275 4.6725 16.8 5.25 16.8Z" fill="#8E8E8E"/>
<path d="M9.45 16.8C10.0275 16.8 10.5 16.3275 10.5 15.75V3.15C10.5 2.5725 10.0275 2.1 9.45 2.1C8.8725 2.1 8.4 2.5725 8.4 3.15V15.75C8.4 16.3275 8.8725 16.8 9.45 16.8Z" fill="#8E8E8E"/>
<path d="M13.65 16.8C14.2275 16.8 14.7 16.3275 14.7 15.75V6.825C14.7 6.2475 14.2275 5.775 13.65 5.775C13.0725 5.775 12.6 6.2475 12.6 6.825V15.75C12.6 16.3275 13.0725 16.8 13.65 16.8Z" fill="#8E8E8E"/>
<path d="M17.85 16.8C18.4275 16.8 18.9 16.3275 18.9 15.75V2.1C18.9 1.5225 18.4275 1.05 17.85 1.05C17.2725 1.05 16.8 1.5225 16.8 2.1V15.75C16.8 16.3275 17.2725 16.8 17.85 16.8Z" fill="#8E8E8E"/>
</svg>
