<svg width="33" height="31" viewBox="0 0 33 31" fill="none" xmlns="http://www.w3.org/2000/svg">
<path d="M31.2842 12.9223L29.8913 12.0269L28.2332 7.51003C28.0419 6.99349 27.6974 6.54771 27.2458 6.2324C26.7941 5.91709 26.2569 5.74729 25.7061 5.74574H20.9406V2.6085C20.9406 2.00513 20.7009 1.42647 20.2742 0.999828C19.8476 0.573183 19.2689 0.333496 18.6656 0.333496H2.525C1.92163 0.333496 1.34298 0.573183 0.916332 0.999828C0.489687 1.42647 0.25 2.00513 0.25 2.6085V25.3883C0.250877 25.8745 0.444375 26.3404 0.788114 26.6842C1.13185 27.0279 1.59781 27.2214 2.08393 27.2223H4.45842C4.57944 28.1295 5.02577 28.962 5.71443 29.5649C6.4031 30.1678 7.28726 30.5001 8.20255 30.5001C9.11784 30.5001 10.002 30.1678 10.6907 29.5649C11.3793 28.962 11.8257 28.1295 11.9467 27.2223H21.0135C21.1345 28.1295 21.5809 28.962 22.2695 29.5649C22.9582 30.1678 23.8424 30.5001 24.7577 30.5001C25.6729 30.5001 26.5571 30.1678 27.2458 29.5649C27.9344 28.962 28.3808 28.1295 28.5018 27.2223H30.9161C31.4022 27.2214 31.8681 27.0279 32.2119 26.6842C32.5556 26.3404 32.7491 25.8745 32.75 25.3883V15.6052C32.751 15.0708 32.6172 14.5448 32.361 14.0758C32.1048 13.6069 31.7344 13.2101 31.2842 12.9223ZM25.6995 7.4039C25.9095 7.40316 26.1149 7.46616 26.2884 7.58458C26.4619 7.70301 26.5953 7.87128 26.6712 8.06717L28.4388 12.8593C28.5015 13.0288 28.618 13.1732 28.7704 13.2705L30.3987 14.3151C30.6132 14.4548 30.7891 14.6461 30.9102 14.8715C31.0313 15.097 31.0938 15.3493 31.0918 15.6052V19.5848H20.9406V7.4039H25.6995ZM2.525 1.99166H18.6689C18.8325 1.99166 18.9894 2.05665 19.105 2.17233C19.2207 2.28801 19.2857 2.4449 19.2857 2.6085V19.5881H1.90816V2.6085C1.90816 2.4449 1.97315 2.28801 2.08883 2.17233C2.20451 2.05665 2.3614 1.99166 2.525 1.99166ZM8.20918 28.8473C7.7894 28.8473 7.37905 28.7228 7.03001 28.4896C6.68098 28.2564 6.40894 27.9249 6.2483 27.537C6.08765 27.1492 6.04562 26.7225 6.12752 26.3107C6.20941 25.899 6.41155 25.5208 6.70838 25.224C7.00521 24.9272 7.3834 24.725 7.79511 24.6432C8.20683 24.5613 8.63358 24.6033 9.02141 24.7639C9.40924 24.9246 9.74072 25.1966 9.97393 25.5456C10.2072 25.8947 10.3316 26.305 10.3316 26.7248C10.3308 27.2875 10.1069 27.8268 9.70901 28.2246C9.31117 28.6225 8.77182 28.8464 8.20918 28.8473ZM24.7643 28.8473C24.3445 28.8473 23.9341 28.7228 23.5851 28.4896C23.2361 28.2564 22.964 27.9249 22.8034 27.537C22.6428 27.1492 22.6007 26.7225 22.6826 26.3107C22.7645 25.899 22.9667 25.5208 23.2635 25.224C23.5603 24.9272 23.9385 24.725 24.3502 24.6432C24.7619 24.5613 25.1887 24.6033 25.5765 24.7639C25.9643 24.9246 26.2958 25.1966 26.529 25.5456C26.7623 25.8947 26.8867 26.305 26.8867 26.7248C26.8863 27.0043 26.8308 27.2809 26.7233 27.5388C26.6159 27.7968 26.4586 28.031 26.2606 28.2282C26.0625 28.4253 25.8276 28.5814 25.5691 28.6877C25.3106 28.7939 25.0338 28.8481 24.7543 28.8473H24.7643ZM30.9227 25.5674H28.3525C28.1071 24.8062 27.6265 24.1424 26.98 23.6715C26.3334 23.2006 25.5542 22.9469 24.7543 22.9469C23.9545 22.9469 23.1752 23.2006 22.5287 23.6715C21.8821 24.1424 21.4016 24.8062 21.1561 25.5674H11.8008C11.5571 24.8045 11.0772 24.1387 10.4304 23.6664C9.78365 23.194 9.00346 22.9394 8.20255 22.9394C7.40164 22.9394 6.62145 23.194 5.97468 23.6664C5.3279 24.1387 4.84802 24.8045 4.60434 25.5674H2.08393C2.06056 25.5674 2.03743 25.5628 2.01589 25.5537C1.99435 25.5447 1.97482 25.5314 1.95846 25.5148C1.94209 25.4981 1.92921 25.4783 1.92058 25.4566C1.91194 25.4349 1.90772 25.4117 1.90816 25.3883V21.2462H31.0918V25.3883C31.0918 25.435 31.0733 25.4797 31.0404 25.5126C31.0074 25.5456 30.9627 25.5641 30.9161 25.5641L30.9227 25.5674Z" fill="#515151"/>
<path d="M5.17802 5.17533H5.80812C5.88816 5.17533 5.96492 5.20713 6.02152 5.26372C6.07811 5.32032 6.10991 5.39708 6.10991 5.47712V12.1031C6.11079 12.7256 6.35844 13.3223 6.79858 13.7624C7.23872 14.2026 7.83542 14.4502 8.45787 14.4511H14.6926C14.9124 14.4511 15.1233 14.3637 15.2788 14.2083C15.4343 14.0528 15.5216 13.8419 15.5216 13.622C15.5216 13.4021 15.4343 13.1912 15.2788 13.0358C15.1233 12.8803 14.9124 12.7929 14.6926 12.7929H8.45787C8.27492 12.7929 8.09947 12.7203 7.97011 12.5909C7.84075 12.4615 7.76807 12.2861 7.76807 12.1031V11.2906H14.0094C14.4835 11.2906 14.9381 11.1023 15.2734 10.7671C15.6086 10.4319 15.7969 9.97721 15.7969 9.50314V6.51844C15.7969 6.29856 15.7095 6.08768 15.5541 5.93219C15.3986 5.77671 15.1877 5.68936 14.9678 5.68936H7.76807V5.47048C7.7672 4.95094 7.56042 4.45293 7.19305 4.08556C6.82568 3.71819 6.32766 3.51141 5.80812 3.51053H5.17802C4.95813 3.51053 4.74725 3.59788 4.59177 3.75337C4.43629 3.90885 4.34894 4.11973 4.34894 4.33962C4.34894 4.5595 4.43629 4.77038 4.59177 4.92587C4.74725 5.08135 4.95813 5.1687 5.17802 5.1687V5.17533ZM14.1321 7.33757V9.50314C14.1321 9.52012 14.1288 9.53694 14.1223 9.55263C14.1158 9.56832 14.1062 9.58258 14.0942 9.59459C14.0822 9.6066 14.068 9.61613 14.0523 9.62263C14.0366 9.62913 14.0198 9.63247 14.0028 9.63247H7.76807V7.33757H14.1321Z" fill="#515151"/>
<path d="M8.82936 17.8403C9.4356 17.8403 9.92706 17.3488 9.92706 16.7426C9.92706 16.1364 9.4356 15.6449 8.82936 15.6449C8.22311 15.6449 7.73166 16.1364 7.73166 16.7426C7.73166 17.3488 8.22311 17.8403 8.82936 17.8403Z" fill="#515151"/>
<path d="M13.303 17.8403C13.9093 17.8403 14.4007 17.3488 14.4007 16.7426C14.4007 16.1364 13.9093 15.6449 13.303 15.6449C12.6968 15.6449 12.2053 16.1364 12.2053 16.7426C12.2053 17.3488 12.6968 17.8403 13.303 17.8403Z" fill="#515151"/>
</svg>
