<svg width="25" height="21" viewBox="0 0 25 21" fill="none" xmlns="http://www.w3.org/2000/svg">
<path d="M18.1924 0C16.017 0 13.8642 0.990406 12.4994 2.50184C11.1352 0.990406 8.98246 0 6.80704 0C3.05353 0 0 3.05522 0 6.81081C0 8.29841 0.47082 9.71165 1.36141 10.8979C1.43458 10.9955 1.52364 11.0715 1.61837 11.1385L9.42208 19.5039L9.42265 19.5045C10.1521 20.4148 11.2566 20.9642 12.4223 20.9938C12.4416 20.9955 12.4597 21 12.4796 21C12.4864 21 12.4932 20.9989 12.5 20.9989C12.5068 20.9989 12.5136 21 12.5204 21C12.5403 21 12.5584 20.9955 12.5783 20.9943C13.7434 20.9648 14.8473 20.4154 15.5768 19.5056C15.5774 19.505 15.5779 19.5045 15.5785 19.5039L23.3822 11.1379C23.4769 11.071 23.566 10.9949 23.6392 10.8973C24.5292 9.71108 25 8.29784 25 6.81081C24.9994 3.05522 21.9459 0 18.1924 0ZM6.80704 2.27027C8.74875 2.27027 10.7926 3.4667 11.4602 4.99459C11.4704 5.01843 11.4858 5.0383 11.4977 5.061C11.5169 5.09846 11.5362 5.13592 11.5595 5.17111C11.5793 5.20062 11.602 5.2273 11.6247 5.25511C11.6491 5.28462 11.6724 5.3147 11.6996 5.34195C11.7263 5.36862 11.7552 5.39132 11.7841 5.41516C11.8119 5.43787 11.8391 5.4617 11.8698 5.48214C11.9044 5.50541 11.9407 5.52357 11.9776 5.54286C12.0008 5.55478 12.0212 5.57068 12.0451 5.58089C12.0519 5.58373 12.0592 5.58487 12.0661 5.5877C12.1046 5.6036 12.1449 5.61438 12.1852 5.6263C12.2169 5.63538 12.2487 5.6473 12.2805 5.65354C12.3173 5.66092 12.3548 5.66262 12.3928 5.66603C12.4285 5.66943 12.4643 5.67511 12.4994 5.67511C12.5352 5.67511 12.5703 5.66943 12.6061 5.66603C12.6441 5.66262 12.6815 5.66092 12.719 5.65354C12.7502 5.6473 12.7808 5.63595 12.8114 5.62687C12.8528 5.61495 12.8942 5.6036 12.9339 5.58714C12.9402 5.5843 12.947 5.58373 12.9532 5.58089C12.9759 5.57068 12.9952 5.55649 13.0173 5.54514C13.0559 5.52527 13.0939 5.50597 13.1302 5.48157C13.1597 5.4617 13.1852 5.43957 13.2125 5.41743C13.2425 5.39303 13.2726 5.36919 13.2998 5.34195C13.3265 5.31527 13.3492 5.28632 13.373 5.25738C13.3957 5.22957 13.419 5.20232 13.4394 5.17224C13.4626 5.13705 13.4813 5.10016 13.5006 5.0627C13.5125 5.04 13.5279 5.01957 13.5381 4.99573C14.2057 3.46784 16.2495 2.2714 18.1913 2.2714C20.6934 2.2714 22.7293 4.3084 22.7293 6.81195C22.7293 7.74957 22.44 8.63781 21.9079 9.40062C21.8926 9.41538 21.8744 9.42673 21.8597 9.44262L13.9181 17.9561C13.9034 17.972 13.8932 17.9908 13.879 18.0072C13.8665 18.022 13.8523 18.0333 13.8404 18.0492C13.5194 18.4766 13.0309 18.7218 12.4983 18.728C11.9662 18.7218 11.4778 18.4766 11.1567 18.0492C11.1448 18.0333 11.1295 18.0214 11.117 18.0061C11.1034 17.9896 11.0938 17.972 11.079 17.9561L3.13748 9.44262C3.12216 9.42616 3.10458 9.41481 3.0887 9.40005C2.55831 8.63668 2.26901 7.74843 2.26901 6.81081C2.26901 4.30727 4.30489 2.27027 6.80704 2.27027Z" fill="#8E8E8E"/>
</svg>
