<svg width="22" height="13" viewBox="0 0 22 13" fill="none" xmlns="http://www.w3.org/2000/svg">
<path d="M19.33 5.2V2.6H18.0175V5.2H15.3925V6.5H18.0175V9.1H19.33V6.5H21.955V5.2H19.33Z" fill="white"/>
<path d="M7.51746 5.2V7.8H11.2305C10.6885 9.3132 9.22896 10.4 7.51746 10.4C5.34658 10.4 3.57996 8.6502 3.57996 6.5C3.57996 4.3498 5.34658 2.6 7.51746 2.6C8.45852 2.6 9.36414 2.9341 10.0676 3.5412L11.7923 1.5808C10.611 0.5616 9.09377 0 7.51746 0C3.89889 0 0.954956 2.9159 0.954956 6.5C0.954956 10.0841 3.89889 13 7.51746 13C11.136 13 14.08 10.0841 14.08 6.5V5.2H7.51746Z" fill="white"/>
</svg>
