<svg width="16" height="15" viewBox="0 0 16 15" fill="none" xmlns="http://www.w3.org/2000/svg">
<path d="M8.1266 10.5094C9.7491 10.5094 11.0678 9.19 11.0678 7.5675C11.0678 6.68688 10.6785 5.89625 10.0641 5.35625C9.84785 5.16687 9.60472 5.00875 9.34035 4.88875C8.96972 4.72 8.55972 4.62563 8.12722 4.62563C7.69472 4.62563 7.2841 4.72 6.9141 4.88875C6.6491 5.01 6.40535 5.16813 6.19035 5.35688C5.57472 5.89688 5.18535 6.6875 5.18535 7.56813C5.18535 9.19 6.50535 10.5094 8.1266 10.5094ZM8.1366 5.39437C9.33722 5.39437 10.311 6.3675 10.311 7.56813C10.311 8.76875 9.33722 9.7425 8.1366 9.7425C6.93597 9.7425 5.96222 8.76938 5.96222 7.56813C5.96222 6.3675 6.93597 5.39437 8.1366 5.39437ZM11.401 5.625H15.6366V12.0487C15.6366 13.6788 14.3153 15 12.6853 15H3.62722C1.99722 15 0.636597 13.6788 0.636597 12.0487V5.625H4.85347C4.51347 6.19562 4.30847 6.85563 4.30847 7.56813C4.30847 9.67688 6.01785 11.3863 8.1266 11.3863C10.2353 11.3863 11.9447 9.67688 11.9447 7.56813C11.9453 6.85563 11.7403 6.19562 11.401 5.625ZM12.6853 0H5.0116V3.125H4.3866V0H3.7616V3.125H3.1366V0.048125C2.92035 0.08375 2.71035 0.1375 2.5116 0.216875V3.125H1.8866V0.56125C1.13535 1.09688 0.636597 1.965 0.636597 2.95125V5H5.30722C6.0366 4.19875 7.05597 3.75 8.1266 3.75C9.20285 3.75 10.221 4.20312 10.946 5H15.6366V2.95125C15.6366 1.32125 14.3153 0 12.6853 0ZM14.3866 3.29063C14.3866 3.54437 14.1785 3.75 13.921 3.75H12.3516C12.0947 3.75 11.8866 3.54437 11.8866 3.29063V1.70937C11.8866 1.45562 12.0947 1.25 12.3516 1.25H13.921C14.1785 1.25 14.3866 1.45562 14.3866 1.70937V3.29063Z" fill="white"/>
</svg>
