<svg width="35" height="29" viewBox="0 0 35 29" fill="none" xmlns="http://www.w3.org/2000/svg">
<path d="M3.83425 22.6507H18.7507C18.9748 22.6507 19.1897 22.5617 19.3482 22.4032C19.5067 22.2448 19.5957 22.0298 19.5957 21.8057C19.5957 21.5816 19.5067 21.3667 19.3482 21.2082C19.1897 21.0497 18.9748 20.9607 18.7507 20.9607H3.83425C3.51421 20.9607 3.20729 20.8336 2.98099 20.6073C2.75469 20.381 2.62755 20.074 2.62755 19.754V6.57158H27.9378V10.7223C27.9378 10.9465 28.0268 11.1614 28.1853 11.3199C28.3438 11.4783 28.5587 11.5674 28.7828 11.5674C29.0069 11.5674 29.2219 11.4783 29.3803 11.3199C29.5388 11.1614 29.6278 10.9465 29.6278 10.7223V3.04275C29.6269 2.27476 29.3215 1.53848 28.7784 0.995423C28.2354 0.45237 27.4991 0.146891 26.7311 0.145996H3.83425C3.06626 0.146891 2.32998 0.45237 1.78693 0.995423C1.24387 1.53848 0.938395 2.27476 0.9375 3.04275V19.754C0.938395 20.522 1.24387 21.2583 1.78693 21.8013C2.32998 22.3444 3.06626 22.6498 3.83425 22.6507ZM3.83425 1.83605H26.7311C27.0511 1.83605 27.358 1.96318 27.5843 2.18948C27.8106 2.41578 27.9378 2.72271 27.9378 3.04275V4.87814H2.62755V3.04275C2.62755 2.72271 2.75469 2.41578 2.98099 2.18948C3.20729 1.96318 3.51421 1.83605 3.83425 1.83605Z" fill="#4B4B4B"/>
<path d="M5.66962 16.891C5.4455 16.891 5.23057 16.98 5.07209 17.1385C4.91362 17.297 4.82459 17.5119 4.82459 17.736C4.82459 17.9601 4.91362 18.1751 5.07209 18.3335C5.23057 18.492 5.4455 18.581 5.66962 18.581H8.23512C8.45923 18.581 8.67417 18.492 8.83264 18.3335C8.99112 18.1751 9.08014 17.9601 9.08014 17.736C9.08014 17.5119 8.99112 17.297 8.83264 17.1385C8.67417 16.98 8.45923 16.891 8.23512 16.891H5.66962Z" fill="#4B4B4B"/>
<path d="M11.9059 18.581H14.4579C14.682 18.581 14.8969 18.492 15.0554 18.3335C15.2139 18.1751 15.3029 17.9601 15.3029 17.736C15.3029 17.5119 15.2139 17.297 15.0554 17.1385C14.8969 16.98 14.682 16.891 14.4579 16.891H11.9059C11.6818 16.891 11.4668 16.98 11.3084 17.1385C11.1499 17.297 11.0609 17.5119 11.0609 17.736C11.0609 17.9601 11.1499 18.1751 11.3084 18.3335C11.4668 18.492 11.6818 18.581 11.9059 18.581Z" fill="#4B4B4B"/>
<path d="M20.5421 16.891H17.9868C17.7626 16.891 17.5477 16.98 17.3892 17.1385C17.2308 17.297 17.1417 17.5119 17.1417 17.736C17.1417 17.9601 17.2308 18.1751 17.3892 18.3335C17.5477 18.492 17.7626 18.581 17.9868 18.581H20.5421C20.7662 18.581 20.9812 18.492 21.1396 18.3335C21.2981 18.1751 21.3872 17.9601 21.3872 17.736C21.3872 17.5119 21.2981 17.297 21.1396 17.1385C20.9812 16.98 20.7662 16.891 20.5421 16.891Z" fill="#4B4B4B"/>
<path d="M11.3347 11.7635V11.057C11.3347 10.4295 11.0854 9.82769 10.6417 9.38396C10.198 8.94024 9.59615 8.69096 8.96863 8.69096H7.18056C6.55303 8.69096 5.95121 8.94024 5.50749 9.38396C5.06377 9.82769 4.81448 10.4295 4.81448 11.057V11.7635C4.81448 12.391 5.06377 12.9928 5.50749 13.4365C5.95121 13.8803 6.55303 14.1295 7.18056 14.1295H8.97539C9.60174 14.1278 10.2018 13.8777 10.6441 13.4342C11.0864 12.9906 11.3347 12.3898 11.3347 11.7635ZM9.64465 11.7635C9.64465 11.9428 9.57343 12.1147 9.44665 12.2415C9.31987 12.3683 9.14792 12.4395 8.96863 12.4395H7.18056C7.00126 12.4395 6.82932 12.3683 6.70254 12.2415C6.57576 12.1147 6.50454 11.9428 6.50454 11.7635V11.057C6.50454 10.8777 6.57576 10.7058 6.70254 10.579C6.82932 10.4522 7.00126 10.381 7.18056 10.381H8.97539C9.15468 10.381 9.32663 10.4522 9.45341 10.579C9.58019 10.7058 9.65141 10.8777 9.65141 11.057L9.64465 11.7635Z" fill="#4B4B4B"/>
<path d="M32.7104 19.7303H32.6394C32.4975 19.7033 32.3589 19.6864 32.2169 19.6593V17.9389C32.2169 16.765 31.7515 15.6391 30.9228 14.8078C30.0941 13.9765 28.9695 13.5077 27.7957 13.5042H27.6639C26.4907 13.5086 25.367 13.9778 24.539 14.809C23.711 15.6402 23.2461 16.7656 23.2461 17.9389V19.6526C23.1041 19.6762 22.9656 19.6965 22.8236 19.7236H22.7526C22.3736 19.793 22.0309 19.993 21.784 20.2887C21.537 20.5845 21.4014 20.9573 21.4006 21.3426V26.8387C21.4014 27.224 21.537 27.5968 21.784 27.8926C22.0309 28.1883 22.3736 28.3883 22.7526 28.4577L23.2393 28.549C26.2145 29.1115 29.2688 29.1115 32.2439 28.549L32.7104 28.4577C33.0894 28.3883 33.4321 28.1883 33.679 27.8926C33.926 27.5968 34.0617 27.224 34.0624 26.8387V21.3494C34.0617 20.9641 33.926 20.5912 33.679 20.2955C33.4321 19.9997 33.0894 19.7998 32.7104 19.7303ZM24.9362 17.9389C24.9371 17.2121 25.2262 16.5154 25.74 16.0015C26.2539 15.4876 26.9507 15.1985 27.6774 15.1976H27.8092C28.5337 15.2021 29.2269 15.4927 29.7379 16.0062C30.2489 16.5197 30.5361 17.2144 30.537 17.9389V19.4193C28.6708 19.2217 26.7889 19.2217 24.9226 19.4193L24.9362 17.9389ZM32.3724 26.8015L31.9195 26.886C29.1507 27.4072 26.309 27.4072 23.5402 26.886L23.0872 26.8015V21.3933H23.1244C26.1679 20.82 29.2917 20.82 32.3352 21.3933H32.3724V26.8015Z" fill="#4B4B4B"/>
<path d="M28.3163 24.04C28.4692 23.9108 28.5763 23.7356 28.6217 23.5407C28.6671 23.3457 28.6483 23.1413 28.5682 22.9579C28.488 22.7744 28.3508 22.6218 28.1769 22.5226C28.0031 22.4234 27.8018 22.383 27.6031 22.4074C27.4012 22.4326 27.213 22.5227 27.0667 22.6642C26.9204 22.8056 26.824 22.9906 26.7919 23.1916C26.7672 23.3489 26.7834 23.5099 26.8391 23.6591C26.8947 23.8083 26.9879 23.9407 27.1096 24.0433L26.7716 24.9898L26.6432 25.3481C26.6222 25.4077 26.6254 25.4732 26.6519 25.5306C26.6784 25.588 26.7262 25.6329 26.7851 25.6556C27.3795 25.8881 28.0397 25.8881 28.6341 25.6556C28.693 25.6329 28.7408 25.588 28.7673 25.5306C28.7938 25.4732 28.797 25.4077 28.776 25.3481L28.3163 24.04Z" fill="#4B4B4B"/>
</svg>
