<svg width="24" height="21" viewBox="0 0 24 21" fill="none" xmlns="http://www.w3.org/2000/svg">
<path fill-rule="evenodd" clip-rule="evenodd" d="M23.0833 16.4861C23.0833 17.0384 22.6356 17.4861 22.0833 17.4861H1.625C1.07272 17.4861 0.625 17.0384 0.625 16.4861V15.2778C0.625 14.7255 1.07272 14.2778 1.625 14.2778H22.0833C22.6356 14.2778 23.0833 14.7255 23.0833 15.2778V16.4861Z" fill="white"/>
<path d="M18.8056 16.0278C18.8056 18.3903 16.8903 20.3056 14.5278 20.3056C12.1652 20.3056 10.25 18.3903 10.25 16.0278C10.25 13.6652 12.1652 11.75 14.5278 11.75C16.8903 11.75 18.8056 13.6652 18.8056 16.0278Z" fill="#313D50"/>
<path fill-rule="evenodd" clip-rule="evenodd" d="M14.5278 18.1667C15.7091 18.1667 16.6667 17.2091 16.6667 16.0278C16.6667 14.8465 15.7091 13.8889 14.5278 13.8889C13.3465 13.8889 12.3889 14.8465 12.3889 16.0278C12.3889 17.2091 13.3465 18.1667 14.5278 18.1667ZM14.5278 20.3056C16.8903 20.3056 18.8056 18.3903 18.8056 16.0278C18.8056 13.6652 16.8903 11.75 14.5278 11.75C12.1652 11.75 10.25 13.6652 10.25 16.0278C10.25 18.3903 12.1652 20.3056 14.5278 20.3056Z" fill="white"/>
<path fill-rule="evenodd" clip-rule="evenodd" d="M23.0833 5.79165C23.0833 6.34393 22.6356 6.79165 22.0833 6.79165H1.625C1.07272 6.79165 0.625 6.34393 0.625 5.79165V4.58331C0.625 4.03103 1.07272 3.58331 1.625 3.58331H22.0833C22.6356 3.58331 23.0833 4.03103 23.0833 4.58331V5.79165Z" fill="white"/>
<path d="M12.6806 4.65278C12.6806 7.01533 10.7653 8.93056 8.40278 8.93056C6.04023 8.93056 4.125 7.01533 4.125 4.65278C4.125 2.29023 6.04023 0.375 8.40278 0.375C10.7653 0.375 12.6806 2.29023 12.6806 4.65278Z" fill="#313D50"/>
<path fill-rule="evenodd" clip-rule="evenodd" d="M8.40278 6.79167C9.58405 6.79167 10.5417 5.83405 10.5417 4.65278C10.5417 3.4715 9.58405 2.51389 8.40278 2.51389C7.2215 2.51389 6.26389 3.4715 6.26389 4.65278C6.26389 5.83405 7.2215 6.79167 8.40278 6.79167ZM8.40278 8.93056C10.7653 8.93056 12.6806 7.01533 12.6806 4.65278C12.6806 2.29023 10.7653 0.375 8.40278 0.375C6.04023 0.375 4.125 2.29023 4.125 4.65278C4.125 7.01533 6.04023 8.93056 8.40278 8.93056Z" fill="white"/>
</svg>
