<svg width="24" height="19" viewBox="0 0 24 19" fill="none" xmlns="http://www.w3.org/2000/svg">
<path d="M21.4043 4.22445C21.7116 3.64646 22.4293 3.42704 23.0073 3.73437C23.5853 4.04169 23.8047 4.75938 23.4974 5.33737L21.2195 10.0111C21.2081 10.0368 21.1957 10.0622 21.1824 10.0874C21.0287 10.3764 20.7724 10.5758 20.4823 10.6644C20.1923 10.7531 19.8683 10.7312 19.5794 10.5775C19.541 10.5571 19.5042 10.5349 19.469 10.511L15.1006 7.87901C14.5226 7.57169 14.3031 6.854 14.6105 6.27601C14.9178 5.69802 15.6355 5.4786 16.2135 5.78592L18.5534 7.19575C17.6013 4.38977 14.9451 2.37057 11.8173 2.37057C9.38433 2.37057 7.16273 3.6005 5.85694 5.60099C5.49913 6.14916 4.76468 6.30347 4.21651 5.94566C3.66834 5.58785 3.51403 4.85341 3.87184 4.30524C5.61084 1.64107 8.57507 0 11.8173 0C15.7816 0 19.1777 2.43274 20.5941 5.88678L21.4043 4.22445ZM2.23206 14.7416C1.92474 15.3196 1.20705 15.539 0.629062 15.2317C0.051072 14.9244 -0.168347 14.2067 0.138976 13.6287L2.41684 8.95489C2.42823 8.92924 2.44062 8.9038 2.454 8.87863C2.60766 8.58964 2.86392 8.39028 3.154 8.3016C3.44409 8.21291 3.76801 8.23488 4.057 8.38854C4.09537 8.40894 4.13215 8.43115 4.1673 8.455L8.5358 11.087C9.11379 11.3944 9.33321 12.112 9.02588 12.69C8.71856 13.268 8.00087 13.4874 7.42288 13.1801L5.08294 11.7703C6.0351 14.5763 8.69128 16.5955 11.8191 16.5955C14.252 16.5955 16.4736 15.3655 17.7794 13.3651C18.1372 12.8169 18.8717 12.6626 19.4198 13.0204C19.968 13.3782 20.1223 14.1126 19.7645 14.6608C18.0255 17.325 15.0613 18.966 11.8191 18.966C7.85479 18.966 4.45869 16.5333 3.04223 13.0793L2.23206 14.7416Z" fill="#141414"/>
</svg>
