<svg width="106" height="20" viewBox="0 0 106 20" fill="none" xmlns="http://www.w3.org/2000/svg">
<path d="M9.10865 1.75264C9.47936 1.02373 10.5206 1.02373 10.8913 1.75264L12.7602 5.42736C12.9056 5.71316 13.1792 5.91193 13.4959 5.96185L17.5683 6.6037C18.3761 6.73102 18.6978 7.72134 18.1191 8.29915L15.2018 11.2121C14.9749 11.4387 14.8704 11.7603 14.9208 12.0769L15.5688 16.1483C15.6973 16.9559 14.8549 17.568 14.1266 17.1962L10.4547 15.3218C10.1691 15.176 9.83092 15.176 9.54534 15.3218L5.87344 17.1962C5.14509 17.568 4.30267 16.9559 4.43121 16.1483L5.07921 12.0769C5.12961 11.7603 5.02511 11.4387 4.79821 11.2121L1.88085 8.29915C1.30217 7.72134 1.62395 6.73102 2.43174 6.6037L6.50412 5.96185C6.82085 5.91193 7.09443 5.71316 7.23978 5.42736L9.10865 1.75264Z" fill="#FFD646"/>
<path d="M31.1087 1.75264C31.4794 1.02373 32.5206 1.02373 32.8913 1.75264L34.7602 5.42736C34.9056 5.71316 35.1792 5.91193 35.4959 5.96185L39.5683 6.6037C40.3761 6.73102 40.6978 7.72134 40.1191 8.29915L37.2018 11.2121C36.9749 11.4387 36.8704 11.7603 36.9208 12.0769L37.5688 16.1483C37.6973 16.9559 36.8549 17.568 36.1266 17.1962L32.4547 15.3218C32.1691 15.176 31.8309 15.176 31.5453 15.3218L27.8734 17.1962C27.1451 17.568 26.3027 16.9559 26.4312 16.1483L27.0792 12.0769C27.1296 11.7603 27.0251 11.4387 26.7982 11.2121L23.8809 8.29915C23.3022 7.72134 23.6239 6.73102 24.4317 6.6037L28.5041 5.96185C28.8208 5.91193 29.0944 5.71316 29.2398 5.42736L31.1087 1.75264Z" fill="#FFD646"/>
<path d="M53.1087 1.75264C53.4794 1.02373 54.5206 1.02373 54.8913 1.75264L56.7602 5.42736C56.9056 5.71316 57.1792 5.91193 57.4959 5.96185L61.5683 6.6037C62.3761 6.73102 62.6978 7.72134 62.1191 8.29915L59.2018 11.2121C58.9749 11.4387 58.8704 11.7603 58.9208 12.0769L59.5688 16.1483C59.6973 16.9559 58.8549 17.568 58.1266 17.1962L54.4547 15.3218C54.1691 15.176 53.8309 15.176 53.5453 15.3218L49.8734 17.1962C49.1451 17.568 48.3027 16.9559 48.4312 16.1483L49.0792 12.0769C49.1296 11.7603 49.0251 11.4387 48.7982 11.2121L45.8809 8.29915C45.3022 7.72134 45.6239 6.73102 46.4317 6.6037L50.5041 5.96185C50.8208 5.91193 51.0944 5.71316 51.2398 5.42736L53.1087 1.75264Z" fill="#FFD646"/>
<path d="M75.1087 1.75264C75.4794 1.02373 76.5206 1.02373 76.8913 1.75264L78.7602 5.42736C78.9056 5.71316 79.1792 5.91193 79.4959 5.96185L83.5683 6.6037C84.3761 6.73102 84.6978 7.72134 84.1191 8.29915L81.2018 11.2121C80.9749 11.4387 80.8704 11.7603 80.9208 12.0769L81.5688 16.1483C81.6973 16.9559 80.8549 17.568 80.1266 17.1962L76.4547 15.3218C76.1691 15.176 75.8309 15.176 75.5453 15.3218L71.8734 17.1962C71.1451 17.568 70.3027 16.9559 70.4312 16.1483L71.0792 12.0769C71.1296 11.7603 71.0251 11.4387 70.7982 11.2121L67.8809 8.29915C67.3022 7.72134 67.6239 6.73102 68.4317 6.6037L72.5041 5.96185C72.8208 5.91193 73.0944 5.71316 73.2398 5.42736L75.1087 1.75264Z" fill="#FFD646"/>
<path d="M95.1087 1.75264C95.4794 1.02373 96.5206 1.02373 96.8913 1.75264L98.7602 5.42736C98.9056 5.71316 99.1792 5.91193 99.4959 5.96185L103.568 6.6037C104.376 6.73102 104.698 7.72134 104.119 8.29915L101.202 11.2121C100.975 11.4387 100.87 11.7603 100.921 12.0769L101.569 16.1483C101.697 16.9559 100.855 17.568 100.127 17.1962L96.4547 15.3218C96.1691 15.176 95.8309 15.176 95.5453 15.3218L91.8734 17.1962C91.1451 17.568 90.3027 16.9559 90.4312 16.1483L91.0792 12.0769C91.1296 11.7603 91.0251 11.4387 90.7982 11.2121L87.8809 8.29915C87.3022 7.72134 87.6239 6.73102 88.4317 6.6037L92.5041 5.96185C92.8208 5.91193 93.0944 5.71316 93.2398 5.42736L95.1087 1.75264Z" fill="#C4C4C4"/>
</svg>
