<svg width="16" height="12" viewBox="0 0 16 12" fill="none" xmlns="http://www.w3.org/2000/svg">
<path d="M14.994 1.53938L13.7225 0.262794C13.5481 0.08762 13.3361 0 13.0869 0C12.8374 0 12.6253 0.08762 12.451 0.262794L6.31744 6.42996L3.56859 3.66081C3.39404 3.48557 3.18213 3.39805 2.93288 3.39805C2.68347 3.39805 2.47156 3.48557 2.29701 3.66081L1.02546 4.93743C0.850913 5.11264 0.763672 5.32546 0.763672 5.57582C0.763672 5.82599 0.850913 6.03901 1.02546 6.21418L4.41002 9.6121L5.68167 10.8887C5.85612 11.064 6.0681 11.1515 6.31744 11.1515C6.56669 11.1515 6.77867 11.0638 6.95321 10.8887L8.22483 9.6121L14.994 2.81607C15.1684 2.64083 15.2558 2.42805 15.2558 2.17768C15.256 1.92744 15.1684 1.71462 14.994 1.53938Z" fill="white"/>
</svg>
