<svg width="27" height="18" viewBox="0 0 27 18" fill="none" xmlns="http://www.w3.org/2000/svg">
<path d="M25.3125 0H5.0625C4.61495 0 4.18572 0.189642 3.86926 0.527208C3.55279 0.864773 3.375 1.32261 3.375 1.8V4.5H0.84375C0.619974 4.5 0.405362 4.59482 0.247129 4.7636C0.0888949 4.93239 0 5.1613 0 5.4C0 5.63869 0.0888949 5.86761 0.247129 6.0364C0.405362 6.20518 0.619974 6.3 0.84375 6.3H3.375V8.1H1.6875C1.46372 8.1 1.24911 8.19482 1.09088 8.3636C0.932645 8.53239 0.84375 8.7613 0.84375 9C0.84375 9.23869 0.932645 9.46761 1.09088 9.6364C1.24911 9.80518 1.46372 9.9 1.6875 9.9H3.375V11.7H2.53125C2.30747 11.7 2.09286 11.7948 1.93463 11.9636C1.77639 12.1324 1.6875 12.3613 1.6875 12.6C1.6875 12.8387 1.77639 13.0676 1.93463 13.2364C2.09286 13.4052 2.30747 13.5 2.53125 13.5H3.375V16.2C3.375 16.6774 3.55279 17.1352 3.86926 17.4728C4.18572 17.8104 4.61495 18 5.0625 18H25.3125C25.7601 18 26.1893 17.8104 26.5057 17.4728C26.8222 17.1352 27 16.6774 27 16.2V1.8C27 1.32261 26.8222 0.864773 26.5057 0.527208C26.1893 0.189642 25.7601 0 25.3125 0ZM5.0625 3.6L10.6144 8.154L5.0625 14.751V3.6ZM15.1875 9.639L5.6025 1.8H24.7725L15.1875 9.639ZM11.9475 9.252L14.6728 11.484C14.8203 11.6051 15.0013 11.6708 15.1875 11.6708C15.3737 11.6708 15.5547 11.6051 15.7022 11.484L18.4275 9.252L24.2578 16.2H6.11719L11.9475 9.252ZM19.7606 8.154L25.3125 3.6V14.76L19.7606 8.154Z" fill="#3B3B3B"/>
</svg>
