<svg width="38" height="46" viewBox="0 0 38 46" fill="none" xmlns="http://www.w3.org/2000/svg">
<path d="M1.63012 22.4863L3.27603 23.9236C3.61349 24.2208 3.87838 24.5914 4.05037 25.0069C4.22236 25.4224 4.29688 25.8718 4.26821 26.3206L4.12448 28.4997C4.05386 29.5734 4.34614 30.6396 4.95439 31.5272L1.70894 39.0659C1.54217 39.4647 1.49335 39.9029 1.56829 40.3286C1.64323 40.7543 1.83878 41.1495 2.13171 41.4673C2.42464 41.7852 2.80264 42.0122 3.22081 42.1216C3.63898 42.2309 4.07974 42.2179 4.49075 42.0842L7.86602 40.9529L9.40992 44.1613C9.59217 44.5458 9.88065 44.8703 10.2413 45.0962C10.602 45.3221 11.0197 45.4401 11.4453 45.4363H11.5056C11.9416 45.4275 12.3655 45.291 12.7248 45.0438C13.0841 44.7966 13.363 44.4495 13.527 44.0454L16.5221 37.0908C17.2361 37.493 18.0417 37.7043 18.8611 37.7043C19.6806 37.7043 20.4862 37.493 21.2002 37.0908L24.1953 44.0454C24.3596 44.4502 24.6392 44.7978 24.9994 45.0451C25.3596 45.2924 25.7845 45.4284 26.2213 45.4363H26.2816C26.7069 45.4388 27.124 45.3197 27.4838 45.093C27.8436 44.8662 28.1311 44.5414 28.3123 44.1566L29.8562 40.9483L33.2362 42.0842C33.6482 42.2192 34.0904 42.2328 34.51 42.1232C34.9295 42.0137 35.3087 41.7856 35.6021 41.4663C35.8954 41.147 36.0907 40.75 36.1644 40.3226C36.2382 39.8953 36.1873 39.4558 36.018 39.0566L32.7725 31.5272C33.3834 30.6389 33.6774 29.5708 33.6071 28.495L33.4633 26.3159C33.435 25.8679 33.5097 25.4193 33.6817 25.0046C33.8537 24.5899 34.1184 24.2201 34.4555 23.9236L36.1014 22.4863C36.6164 22.0355 37.0291 21.4798 37.3118 20.8565C37.5945 20.2332 37.7408 19.5567 37.7408 18.8723C37.7408 18.1879 37.5945 17.5113 37.3118 16.888C37.0291 16.2647 36.6164 15.7091 36.1014 15.2582L34.4509 13.8163C34.1131 13.5193 33.8481 13.1488 33.676 12.7332C33.504 12.3177 33.4297 11.8682 33.4587 11.4193L33.6024 9.24025C33.646 8.55921 33.5439 7.87671 33.303 7.23821C33.0621 6.59971 32.6879 6.01987 32.2054 5.53732C31.7228 5.05477 31.143 4.68058 30.5045 4.43968C29.866 4.19879 29.1835 4.09672 28.5024 4.14026L26.3233 4.28399C25.8723 4.31297 25.4206 4.23771 25.0034 4.06405C24.5861 3.89038 24.2144 3.62297 23.9171 3.28254L22.4798 1.64127C22.0289 1.12566 21.4729 0.712459 20.8492 0.429382C20.2255 0.146305 19.5484 -9.65861e-05 18.8635 4.78071e-08C18.1785 -9.65861e-05 17.5014 0.146305 16.8777 0.429382C16.254 0.712459 15.698 1.12566 15.2471 1.64127L13.8098 3.28254C13.5126 3.62 13.142 3.88489 12.7265 4.05688C12.311 4.22887 11.8616 4.30339 11.4128 4.27472L9.23374 4.13099C8.5527 4.08744 7.8702 4.18952 7.2317 4.43041C6.5932 4.67131 6.01336 5.04549 5.53081 5.52804C5.04825 6.0106 4.67407 6.59044 4.43317 7.22894C4.19228 7.86744 4.0902 8.54994 4.13375 9.23098L4.27748 11.4101C4.30615 11.8588 4.23163 12.3082 4.05964 12.7237C3.88765 13.1392 3.62276 13.5098 3.2853 13.8071L1.63939 15.2443C1.12442 15.6952 0.711745 16.2508 0.429007 16.8741C0.146269 17.4974 0 18.1739 0 18.8584C0 19.5428 0.146269 20.2193 0.429007 20.8426C0.711745 21.4659 1.12442 22.0216 1.63939 22.4724L1.63012 22.4863ZM11.4453 43.03L9.89674 39.8124C9.66966 39.3395 9.2776 38.9659 8.79432 38.7618C8.31105 38.5577 7.76986 38.5373 7.27257 38.7043L3.88803 39.8402L6.80893 33.1314C7.56731 33.4965 8.40819 33.6564 9.24765 33.595L11.4267 33.4513C11.8755 33.4226 12.3249 33.4971 12.7404 33.6691C13.1559 33.8411 13.5265 34.106 13.8237 34.4435L14.6907 35.4913L11.4453 43.03ZM33.8296 39.8402L30.4543 38.7043C29.957 38.5373 29.4159 38.5577 28.9326 38.7618C28.4493 38.9659 28.0572 39.3395 27.8302 39.8124L26.2816 43.03L23.0362 35.4913L23.9356 34.462C24.2329 34.1246 24.6034 33.8597 25.0189 33.6877C25.4345 33.5157 25.8838 33.4412 26.3326 33.4698L28.5117 33.6136C29.3512 33.6754 30.1922 33.5155 30.9504 33.1499L33.8296 39.8402ZM3.15548 17.0015L4.80139 15.5642C5.40623 15.032 5.88117 14.3684 6.18977 13.6242C6.49838 12.88 6.63247 12.075 6.58175 11.271L6.43802 9.09189C6.41474 8.73842 6.4673 8.38406 6.59218 8.05256C6.71705 7.72107 6.91135 7.4201 7.16206 7.16983C7.41276 6.91957 7.71407 6.7258 8.04578 6.6015C8.3775 6.47721 8.73195 6.42527 9.08538 6.44917L11.2645 6.5929C12.0681 6.64383 12.8728 6.51031 13.6169 6.20254C14.361 5.89477 15.0249 5.4209 15.5577 4.81717L17.0089 3.16663C17.2422 2.89988 17.5298 2.68609 17.8524 2.53961C18.1751 2.39313 18.5253 2.31735 18.8797 2.31735C19.234 2.31735 19.5843 2.39313 19.9069 2.53961C20.2296 2.68609 20.5172 2.89988 20.7504 3.16663L22.1924 4.81254C22.7248 5.4171 23.3884 5.89185 24.1326 6.20043C24.8767 6.50902 25.6816 6.64326 26.4856 6.5929L28.6647 6.44917C29.0185 6.4252 29.3734 6.47725 29.7055 6.60181C30.0375 6.72637 30.3391 6.92057 30.5899 7.17135C30.8407 7.42213 31.0349 7.72368 31.1594 8.05574C31.284 8.3878 31.336 8.74268 31.3121 9.09653L31.1683 11.2756C31.1167 12.0793 31.2499 12.8842 31.5577 13.6284C31.8655 14.3726 32.3398 15.0365 32.9441 15.5689L34.59 17.0061C34.8567 17.2394 35.0705 17.527 35.217 17.8497C35.3635 18.1723 35.4392 18.5226 35.4392 18.8769C35.4392 19.2313 35.3635 19.5815 35.217 19.9042C35.0705 20.2268 34.8567 20.5144 34.59 20.7477L32.9441 22.185C32.3371 22.7151 31.8597 23.3773 31.5486 24.1208C31.2376 24.8643 31.1011 25.6691 31.1498 26.4736L31.2935 28.6527C31.3175 29.0065 31.2654 29.3614 31.1409 29.6935C31.0163 30.0255 30.8221 30.3271 30.5713 30.5778C30.3206 30.8286 30.019 31.0228 29.6869 31.1474C29.3549 31.2719 29 31.324 28.6462 31.3L26.4671 31.1563C25.6645 31.1033 24.8604 31.2345 24.1163 31.5398C23.3722 31.8452 22.7078 32.3166 22.1738 32.9181L20.718 34.5779C20.4847 34.8447 20.1971 35.0585 19.8745 35.2049C19.5518 35.3514 19.2016 35.4272 18.8472 35.4272C18.4929 35.4272 18.1426 35.3514 17.82 35.2049C17.4973 35.0585 17.2097 34.8447 16.9765 34.5779L15.5531 32.9181C15.0589 32.3572 14.4512 31.9076 13.7702 31.5991C13.0892 31.2906 12.3505 31.1302 11.6029 31.1285H11.2645L9.08538 31.2722C8.73153 31.2962 8.37666 31.2441 8.0446 31.1196C7.71254 30.995 7.41098 30.8008 7.1602 30.55C6.90942 30.2992 6.71523 29.9977 6.59066 29.6656C6.4661 29.3336 6.41405 28.9787 6.43802 28.6249L6.58175 26.4458C6.63247 25.6417 6.49838 24.8367 6.18977 24.0925C5.88117 23.3483 5.40623 22.6847 4.80139 22.1525L3.15548 20.7152C2.88873 20.482 2.67494 20.1944 2.52846 19.8717C2.38199 19.5491 2.30621 19.1988 2.30621 18.8445C2.30621 18.4901 2.38199 18.1399 2.52846 17.8172C2.67494 17.4945 2.88873 17.2069 3.15548 16.9737V17.0015Z" fill="#313D50"/>
<path d="M13.9304 20.8636L13.1515 25.3516C13.1143 25.5651 13.1377 25.7847 13.219 25.9856C13.3003 26.1865 13.4364 26.3605 13.6116 26.488C13.7869 26.6154 13.9944 26.6912 14.2105 26.7067C14.4267 26.7222 14.6428 26.6768 14.8345 26.5756L18.8635 24.4336L22.8925 26.5617C23.0841 26.6629 23.3003 26.7083 23.5164 26.6928C23.7326 26.6773 23.9401 26.6015 24.1153 26.4741C24.2906 26.3466 24.4266 26.1726 24.5079 25.9717C24.5893 25.7708 24.6127 25.5512 24.5755 25.3377L23.7965 20.8636L27.042 17.6924C27.1977 17.5414 27.3079 17.3497 27.3601 17.1392C27.4123 16.9287 27.4044 16.7077 27.3372 16.5015C27.2701 16.2952 27.1464 16.112 26.9803 15.9725C26.8142 15.8331 26.6123 15.743 26.3975 15.7126L21.8864 15.0682L19.8788 10.9789C19.7834 10.7842 19.6353 10.6201 19.4513 10.5054C19.2673 10.3906 19.0548 10.3298 18.838 10.3298C18.6211 10.3298 18.4086 10.3906 18.2246 10.5054C18.0406 10.6201 17.8925 10.7842 17.7971 10.9789L15.7896 15.0682L11.3062 15.6987C11.0915 15.7291 10.8895 15.8192 10.7234 15.9586C10.5573 16.0981 10.4337 16.2813 10.3665 16.4876C10.2994 16.6938 10.2915 16.9148 10.3436 17.1253C10.3958 17.3358 10.5061 17.5275 10.6618 17.6784L13.9304 20.8636ZM16.7493 17.2751C16.936 17.2485 17.1134 17.1767 17.2661 17.066C17.4188 16.9554 17.5422 16.8091 17.6256 16.6399L18.8635 14.1038L20.1014 16.6214C20.1847 16.7905 20.3081 16.9368 20.4608 17.0475C20.6135 17.1582 20.7909 17.2299 20.9776 17.2565L23.7595 17.6553L21.7426 19.6118C21.6075 19.7433 21.5064 19.9057 21.4483 20.0851C21.3901 20.2645 21.3765 20.4553 21.4088 20.6411L21.8725 23.4229L19.392 22.1108C19.2249 22.0223 19.0387 21.976 18.8496 21.976C18.6604 21.976 18.4742 22.0223 18.3071 22.1108L15.8267 23.4229L16.2903 20.6411C16.3226 20.4553 16.309 20.2645 16.2509 20.0851C16.1927 19.9057 16.0916 19.7433 15.9565 19.6118L13.9443 17.6553L16.7493 17.2751Z" fill="#313D50"/>
</svg>
