<svg width="36" height="44" viewBox="0 0 36 44" fill="none" xmlns="http://www.w3.org/2000/svg">
<path d="M17.3839 0.903201C12.7092 4.53294 7.0596 6.68864 1.15515 7.09558C0.877466 7.11227 0.616585 7.23419 0.425646 7.4365C0.234708 7.63882 0.128073 7.90631 0.127462 8.1845V19.078C0.121195 24.1874 1.56978 29.193 4.30382 33.5094C7.36759 38.3382 12.1116 41.8607 17.6201 43.3971C17.7169 43.4239 17.817 43.4372 17.9174 43.4365H18.2061C18.3036 43.4364 18.4007 43.4231 18.4947 43.3971C24.0011 41.8535 28.7404 38.3247 31.7978 33.4919C34.5321 29.1756 35.9807 24.17 35.9742 19.0605V8.18887C35.9738 7.9128 35.869 7.6471 35.6808 7.44512C35.4926 7.24314 35.235 7.11983 34.9596 7.09996C29.0528 6.69417 23.4011 4.53672 18.7265 0.903201C18.5345 0.753907 18.2983 0.672852 18.0552 0.672852C17.812 0.672852 17.5758 0.753907 17.3839 0.903201ZM33.8007 19.078C33.7996 23.7676 32.4649 28.3602 29.9523 32.3199C27.2132 36.6514 22.9813 39.8285 18.0574 41.2499C13.1335 39.8285 8.90151 36.6514 6.16241 32.3199C3.64982 28.3602 2.31511 23.7676 2.31404 19.078V9.18595C8.00864 8.61571 13.4457 6.52698 18.0574 3.13788C22.6677 6.53025 28.1052 8.62069 33.8007 9.19032V19.078Z" fill="#313D50"/>
<path d="M13.0982 14.7748C13.0971 14.0248 12.7986 13.3058 12.2682 12.7754C11.7379 12.245 11.0189 11.9466 10.2688 11.9454H9.31108C9.02113 11.9454 8.74304 12.0606 8.53801 12.2656C8.33298 12.4707 8.2178 12.7487 8.2178 13.0387C8.2178 13.3286 8.33298 13.6067 8.53801 13.8118C8.74304 14.0168 9.02113 14.132 9.31108 14.132H10.2732C10.4437 14.132 10.6072 14.1997 10.7277 14.3203C10.8483 14.4408 10.916 14.6043 10.916 14.7748V24.9468C10.916 25.8542 11.2762 26.7245 11.9174 27.3665C12.5586 28.0085 13.4284 28.3698 14.3358 28.371H23.8955C24.1855 28.371 24.4636 28.2558 24.6686 28.0507C24.8736 27.8457 24.9888 27.5676 24.9888 27.2777C24.9888 26.9877 24.8736 26.7096 24.6686 26.5046C24.4636 26.2996 24.1855 26.1844 23.8955 26.1844H14.3315C14.004 26.1832 13.6903 26.0523 13.4592 25.8204C13.228 25.5884 13.0982 25.2743 13.0982 24.9468V24.0153H22.8678C23.5472 24.0141 24.1983 23.7438 24.6786 23.2634C25.159 22.7831 25.4294 22.1319 25.4305 21.4526V16.371C25.4305 16.0811 25.3153 15.803 25.1103 15.598C24.9053 15.3929 24.6272 15.2777 24.3372 15.2777H13.0982V14.7748ZM23.2221 17.4468V21.4526C23.2221 21.5524 23.1824 21.648 23.1119 21.7186C23.0414 21.7891 22.9457 21.8287 22.846 21.8287H13.0982V17.4556L23.2221 17.4468Z" fill="#313D50"/>
<path d="M15.4685 33.505C16.2921 33.505 16.9597 32.8374 16.9597 32.0138C16.9597 31.1902 16.2921 30.5226 15.4685 30.5226C14.6449 30.5226 13.9772 31.1902 13.9772 32.0138C13.9772 32.8374 14.6449 33.505 15.4685 33.505Z" fill="#313D50"/>
<path d="M21.5384 33.505C22.362 33.505 23.0296 32.8374 23.0296 32.0138C23.0296 31.1902 22.362 30.5226 21.5384 30.5226C20.7148 30.5226 20.0472 31.1902 20.0472 32.0138C20.0472 32.8374 20.7148 33.505 21.5384 33.505Z" fill="#313D50"/>
</svg>
