<svg width="43" height="37" viewBox="0 0 43 37" fill="none" xmlns="http://www.w3.org/2000/svg">
<path d="M4.19797 28.6523H22.912C23.1932 28.6523 23.4629 28.5406 23.6617 28.3418C23.8605 28.143 23.9722 27.8734 23.9722 27.5922C23.9722 27.311 23.8605 27.0413 23.6617 26.8425C23.4629 26.6437 23.1932 26.532 22.912 26.532H4.19797C3.79646 26.532 3.41139 26.3725 3.12747 26.0886C2.84356 25.8047 2.68406 25.4196 2.68406 25.0181V8.47948H34.4382V13.687C34.4382 13.9682 34.5499 14.2379 34.7487 14.4367C34.9475 14.6355 35.2172 14.7472 35.4984 14.7472C35.7795 14.7472 36.0492 14.6355 36.248 14.4367C36.4468 14.2379 36.5585 13.9682 36.5585 13.687V4.05222C36.5574 3.0887 36.1741 2.16497 35.4928 1.48366C34.8115 0.802345 33.8878 0.419091 32.9243 0.417969H4.19797C3.23445 0.419091 2.31072 0.802345 1.62941 1.48366C0.948097 2.16497 0.564843 3.0887 0.563721 4.05222V25.0181C0.564843 25.9816 0.948097 26.9053 1.62941 27.5867C2.31072 28.268 3.23445 28.6512 4.19797 28.6523ZM4.19797 2.5383H32.9243C33.3258 2.5383 33.7109 2.69781 33.9948 2.98172C34.2787 3.26564 34.4382 3.65071 34.4382 4.05222V6.35491H2.68406V4.05222C2.68406 3.65071 2.84356 3.26564 3.12747 2.98172C3.41139 2.69781 3.79646 2.5383 4.19797 2.5383Z" fill="#313D50"/>
<path d="M6.50066 21.4263C6.21948 21.4263 5.94983 21.538 5.75101 21.7368C5.55219 21.9356 5.44049 22.2053 5.44049 22.4864C5.44049 22.7676 5.55219 23.0373 5.75101 23.2361C5.94983 23.4349 6.21948 23.5466 6.50066 23.5466H9.71932C10.0005 23.5466 10.2702 23.4349 10.469 23.2361C10.6678 23.0373 10.7795 22.7676 10.7795 22.4864C10.7795 22.2053 10.6678 21.9356 10.469 21.7368C10.2702 21.538 10.0005 21.4263 9.71932 21.4263H6.50066Z" fill="#313D50"/>
<path d="M14.3247 23.5466H17.5264C17.8076 23.5466 18.0772 23.4349 18.2761 23.2361C18.4749 23.0373 18.5866 22.7676 18.5866 22.4864C18.5866 22.2053 18.4749 21.9356 18.2761 21.7368C18.0772 21.538 17.8076 21.4263 17.5264 21.4263H14.3247C14.0435 21.4263 13.7739 21.538 13.575 21.7368C13.3762 21.9356 13.2645 22.2053 13.2645 22.4864C13.2645 22.7676 13.3762 23.0373 13.575 23.2361C13.7739 23.4349 14.0435 23.5466 14.3247 23.5466Z" fill="#313D50"/>
<path d="M25.1596 21.4263H21.9537C21.6725 21.4263 21.4028 21.538 21.204 21.7368C21.0052 21.9356 20.8935 22.2053 20.8935 22.4864C20.8935 22.7676 21.0052 23.0373 21.204 23.2361C21.4028 23.4349 21.6725 23.5466 21.9537 23.5466H25.1596C25.4408 23.5466 25.7104 23.4349 25.9093 23.2361C26.1081 23.0373 26.2198 22.7676 26.2198 22.4864C26.2198 22.2053 26.1081 21.9356 25.9093 21.7368C25.7104 21.538 25.4408 21.4263 25.1596 21.4263Z" fill="#313D50"/>
<path d="M13.608 14.9932V14.1069C13.608 13.3196 13.2953 12.5645 12.7386 12.0078C12.1819 11.4511 11.4268 11.1384 10.6395 11.1384H8.39622C7.60894 11.1384 6.8539 11.4511 6.2972 12.0078C5.7405 12.5645 5.42776 13.3196 5.42776 14.1069V14.9932C5.42776 15.7804 5.7405 16.5355 6.2972 17.0922C6.8539 17.6489 7.60894 17.9616 8.39622 17.9616H10.648C11.4338 17.9594 12.1867 17.6456 12.7416 17.0892C13.2964 16.5327 13.608 15.779 13.608 14.9932ZM11.4877 14.9932C11.4877 15.2181 11.3983 15.4338 11.2393 15.5929C11.0802 15.7519 10.8645 15.8413 10.6395 15.8413H8.39622C8.17128 15.8413 7.95556 15.7519 7.7965 15.5929C7.63745 15.4338 7.54809 15.2181 7.54809 14.9932V14.1069C7.54809 13.8819 7.63745 13.6662 7.7965 13.5071C7.95556 13.3481 8.17128 13.2587 8.39622 13.2587H10.648C10.873 13.2587 11.0887 13.3481 11.2477 13.5071C11.4068 13.6662 11.4962 13.8819 11.4962 14.1069L11.4877 14.9932Z" fill="#313D50"/>
<path d="M40.426 24.9884H40.3369C40.1588 24.9545 39.985 24.9333 39.8069 24.8994V22.7409C39.8069 21.2682 39.223 19.8556 38.1833 18.8127C37.1435 17.7697 35.7327 17.1816 34.2601 17.1771H34.0947C32.6228 17.1827 31.213 17.7714 30.1742 18.8142C29.1354 19.857 28.5521 21.2689 28.5521 22.7409V24.8909C28.374 24.9206 28.2002 24.946 28.022 24.9799H27.933C27.4575 25.0671 27.0276 25.318 26.7177 25.689C26.4079 26.06 26.2377 26.5278 26.2367 27.0112V33.9065C26.2377 34.3899 26.4079 34.8577 26.7177 35.2288C27.0276 35.5998 27.4575 35.8507 27.933 35.9378L28.5436 36.0523C32.2763 36.758 36.1081 36.758 39.8408 36.0523L40.426 35.9378C40.9015 35.8507 41.3314 35.5998 41.6413 35.2288C41.9511 34.8577 42.1213 34.3899 42.1223 33.9065V27.0197C42.1213 26.5363 41.9511 26.0685 41.6413 25.6975C41.3314 25.3264 40.9015 25.0756 40.426 24.9884ZM30.6725 22.7409C30.6736 21.8291 31.0363 20.955 31.681 20.3102C32.3257 19.6655 33.1999 19.3028 34.1116 19.3017H34.277C35.1859 19.3073 36.0556 19.6719 36.6967 20.3162C37.3378 20.9604 37.6981 21.832 37.6992 22.7409V24.5983C35.3579 24.3503 32.9969 24.3503 30.6555 24.5983L30.6725 22.7409ZM40.0019 33.8599L39.4337 33.9659C35.96 34.6198 32.3948 34.6198 28.9211 33.9659L28.3528 33.8599V27.0748H28.3995C32.2178 26.3555 36.1369 26.3555 39.9553 27.0748H40.0019V33.8599Z" fill="#313D50"/>
<path d="M34.9131 30.3953C35.105 30.2332 35.2393 30.0135 35.2963 29.7689C35.3532 29.5243 35.3296 29.2678 35.2291 29.0377C35.1286 28.8075 34.9564 28.616 34.7383 28.4916C34.5201 28.3671 34.2676 28.3164 34.0184 28.347C33.7651 28.3787 33.5289 28.4918 33.3454 28.6692C33.1618 28.8466 33.0409 29.0788 33.0006 29.3309C32.9696 29.5282 32.9899 29.7303 33.0598 29.9175C33.1296 30.1047 33.2465 30.2707 33.3992 30.3995L32.9752 31.5869L32.814 32.0364C32.7877 32.1113 32.7916 32.1934 32.8249 32.2654C32.8581 32.3375 32.9181 32.3937 32.9921 32.4223C33.7378 32.7139 34.566 32.7139 35.3118 32.4223C35.3858 32.3937 35.4457 32.3375 35.479 32.2654C35.5122 32.1934 35.5161 32.1113 35.4899 32.0364L34.9131 30.3953Z" fill="#313D50"/>
</svg>
