<svg width="40" height="37" viewBox="0 0 40 37" fill="none" xmlns="http://www.w3.org/2000/svg">
<path d="M37.733 15.4954L36.0648 14.423L34.0789 9.01322C33.8498 8.39457 33.4372 7.86067 32.8963 7.48302C32.3553 7.10538 31.712 6.90201 31.0523 6.90016H25.3446V3.14271C25.3446 2.42007 25.0575 1.72702 24.5465 1.21603C24.0355 0.705039 23.3425 0.417969 22.6198 0.417969H3.28846C2.56582 0.417969 1.87277 0.705039 1.36178 1.21603C0.850791 1.72702 0.563721 2.42007 0.563721 3.14271V30.4259C0.564771 31.0081 0.796522 31.5662 1.20821 31.9779C1.61991 32.3896 2.17798 32.6213 2.7602 32.6224H5.6041C5.74904 33.709 6.28361 34.706 7.10842 35.4281C7.93323 36.1502 8.99217 36.5482 10.0884 36.5482C11.1846 36.5482 12.2436 36.1502 13.0684 35.4281C13.8932 34.706 14.4278 33.709 14.5727 32.6224H25.432C25.5769 33.709 26.1115 34.706 26.9363 35.4281C27.7611 36.1502 28.82 36.5482 29.9163 36.5482C31.0125 36.5482 32.0715 36.1502 32.8963 35.4281C33.7211 34.706 34.2556 33.709 34.4006 32.6224H37.2922C37.8744 32.6213 38.4324 32.3896 38.8441 31.9779C39.2558 31.5662 39.4876 31.0081 39.4886 30.4259V18.7087C39.4899 18.0687 39.3296 17.4387 39.0228 16.877C38.7159 16.3153 38.2723 15.8401 37.733 15.4954ZM31.0443 8.88612C31.2959 8.88523 31.5418 8.96069 31.7496 9.10252C31.9574 9.24436 32.1173 9.44589 32.2081 9.68051L34.3251 15.4199C34.4003 15.623 34.5398 15.796 34.7223 15.9125L36.6725 17.1636C36.9294 17.3309 37.1401 17.56 37.2851 17.83C37.4302 18.1 37.505 18.4022 37.5027 18.7087V23.475H25.3446V8.88612H31.0443ZM3.28846 2.40393H22.6238C22.8198 2.40393 23.0077 2.48177 23.1462 2.62032C23.2848 2.75886 23.3626 2.94678 23.3626 3.14271V23.479H2.54969V3.14271C2.54969 2.94678 2.62752 2.75886 2.76607 2.62032C2.90462 2.48177 3.09253 2.40393 3.28846 2.40393ZM10.0964 34.5686C9.59359 34.5686 9.10211 34.4195 8.68407 34.1402C8.26604 33.8609 7.94022 33.4639 7.74782 32.9994C7.55542 32.5349 7.50508 32.0238 7.60316 31.5307C7.70125 31.0375 7.94335 30.5846 8.29886 30.2291C8.65437 29.8736 9.10732 29.6315 9.60043 29.5334C10.0935 29.4353 10.6047 29.4856 11.0691 29.678C11.5336 29.8704 11.9307 30.1963 12.21 30.6143C12.4893 31.0323 12.6384 31.5238 12.6384 32.0266C12.6373 32.7004 12.3692 33.3464 11.8927 33.8229C11.4162 34.2994 10.7702 34.5676 10.0964 34.5686ZM29.9242 34.5686C29.4215 34.5686 28.93 34.4195 28.5119 34.1402C28.0939 33.8609 27.7681 33.4639 27.5757 32.9994C27.3833 32.5349 27.3329 32.0238 27.431 31.5307C27.5291 31.0375 27.7712 30.5846 28.1267 30.2291C28.4822 29.8736 28.9352 29.6315 29.4283 29.5334C29.9214 29.4353 30.4325 29.4856 30.897 29.678C31.3615 29.8704 31.7585 30.1963 32.0378 30.6143C32.3172 31.0323 32.4663 31.5238 32.4663 32.0266C32.4657 32.3613 32.3992 32.6926 32.2706 33.0015C32.1419 33.3105 31.9535 33.591 31.7163 33.8271C31.4791 34.0632 31.1977 34.2502 30.8881 34.3775C30.5786 34.5047 30.247 34.5697 29.9123 34.5686H29.9242ZM37.3001 30.6404H34.2219C33.9279 29.7286 33.3523 28.9336 32.5779 28.3696C31.8036 27.8057 30.8703 27.5018 29.9123 27.5018C28.9543 27.5018 28.021 27.8057 27.2467 28.3696C26.4723 28.9336 25.8967 29.7286 25.6028 30.6404H14.398C14.1061 29.7266 13.5313 28.9293 12.7567 28.3635C11.9821 27.7977 11.0477 27.4928 10.0884 27.4928C9.12916 27.4928 8.19474 27.7977 7.42011 28.3635C6.64547 28.9293 6.07072 29.7266 5.77886 30.6404H2.7602C2.73222 30.6404 2.70451 30.6348 2.67871 30.624C2.65291 30.6132 2.62952 30.5973 2.60992 30.5773C2.59032 30.5574 2.5749 30.5337 2.56456 30.5077C2.55421 30.4817 2.54916 30.4539 2.54969 30.4259V25.465H37.5027V30.4259C37.5027 30.4817 37.4805 30.5353 37.441 30.5748C37.4015 30.6142 37.348 30.6364 37.2922 30.6364L37.3001 30.6404Z" fill="#313D50"/>
<path d="M6.466 6.21699H7.22067C7.31653 6.21699 7.40846 6.25507 7.47625 6.32285C7.54403 6.39063 7.58211 6.48257 7.58211 6.57843V14.5143C7.58317 15.2598 7.87978 15.9745 8.40693 16.5017C8.93408 17.0288 9.64874 17.3254 10.3942 17.3265H17.8615C18.1248 17.3265 18.3774 17.2219 18.5636 17.0356C18.7498 16.8494 18.8545 16.5968 18.8545 16.3335C18.8545 16.0701 18.7498 15.8176 18.5636 15.6313C18.3774 15.4451 18.1248 15.3405 17.8615 15.3405H10.3942C10.1751 15.3405 9.96499 15.2535 9.81006 15.0985C9.65512 14.9436 9.56808 14.7335 9.56808 14.5143V13.5412H17.0433C17.611 13.5412 18.1556 13.3157 18.5571 12.9142C18.9586 12.5127 19.1841 11.9681 19.1841 11.4004V7.82562C19.1841 7.56226 19.0795 7.30969 18.8933 7.12347C18.7071 6.93725 18.4545 6.83263 18.1911 6.83263H9.56808V6.57049C9.56703 5.94824 9.31938 5.35177 8.87938 4.91178C8.43938 4.47178 7.84292 4.22413 7.22067 4.22308H6.466C6.20265 4.22308 5.95008 4.32769 5.76386 4.51391C5.57764 4.70013 5.47302 4.9527 5.47302 5.21606C5.47302 5.47941 5.57764 5.73198 5.76386 5.9182C5.95008 6.10442 6.20265 6.20904 6.466 6.20904V6.21699ZM17.1902 8.80668V11.4004C17.1902 11.4207 17.1862 11.4408 17.1784 11.4596C17.1706 11.4784 17.1592 11.4955 17.1448 11.5099C17.1305 11.5243 17.1134 11.5357 17.0946 11.5435C17.0758 11.5513 17.0557 11.5553 17.0353 11.5553H9.56808V8.80668H17.1902Z" fill="#313D50"/>
<path d="M10.8391 21.3858C11.5652 21.3858 12.1538 20.7972 12.1538 20.0711C12.1538 19.345 11.5652 18.7564 10.8391 18.7564C10.113 18.7564 9.52439 19.345 9.52439 20.0711C9.52439 20.7972 10.113 21.3858 10.8391 21.3858Z" fill="#313D50"/>
<path d="M16.1972 21.3858C16.9233 21.3858 17.5119 20.7972 17.5119 20.0711C17.5119 19.345 16.9233 18.7564 16.1972 18.7564C15.4711 18.7564 14.8825 19.345 14.8825 20.0711C14.8825 20.7972 15.4711 21.3858 16.1972 21.3858Z" fill="#313D50"/>
</svg>
