<svg width="19" height="15" viewBox="0 0 19 15" fill="none" xmlns="http://www.w3.org/2000/svg">
<path d="M18.3184 1.77579C17.6561 2.07727 16.9444 2.2803 16.1974 2.37182C16.9601 1.90346 17.5459 1.1613 17.8211 0.276866C17.1079 0.710624 16.3174 1.02594 15.4759 1.19591C14.8031 0.459906 13.8424 0 12.7804 0C10.3961 0 8.64411 2.28107 9.18261 4.64905C6.11436 4.49139 3.39336 2.984 1.57161 0.692935C0.604109 2.39489 1.06986 4.62136 2.71386 5.74882C2.10936 5.72882 1.53936 5.55886 1.04211 5.27507C1.00161 7.02933 2.22786 8.67053 4.00386 9.03584C3.48411 9.18042 2.91486 9.21426 2.33586 9.10044C2.80536 10.6047 4.16886 11.6991 5.78586 11.7299C4.23336 12.9781 2.27736 13.5357 0.318359 13.2988C1.95261 14.3732 3.89436 15 5.97936 15C12.8359 15 16.7096 9.06199 16.4756 3.73616C17.1971 3.20165 17.8234 2.53486 18.3184 1.77579Z" fill="white"/>
</svg>
